<svg xmlns="http://www.w3.org/2000/svg" height="518" width="518">
    <path
      fill="#000"
      d="M389 403c45-42 65-112 53-179H263v74h102c-4 24-18 44-38 57z"
      transform="translate(3,3)"
    />
    <path
      fill="#000"
      d="M93 344a192 192 0 0 0 296 59l-62-48c-53 35-141 22-171-60z"
      transform="translate(3,3)"
    />
    <path
      fill="#000"
      d="M156 295c-8-25-8-48 0-73l-63-49c-23 46-30 111 0 171z"
      transform="translate(3,3)"
    />
    <path
      fill="#000"
      d="M156 222c22-69 116-109 179-50l55-54c-78-75-230-72-297 55z"
      transform="translate(3,3)"
    />
  </svg>